<svg xmlns="http://www.w3.org/2000/svg" xmlns:xlink="http://www.w3.org/1999/xlink" fill="none" version="1.1" width="46" height="46" viewBox="0 0 46 46"><defs><clipPath id="master_svg0_7_314"><rect x="0" y="0" width="46" height="46" rx="0"/></clipPath></defs><g clip-path="url(#master_svg0_7_314)"><g><path d="M23.957715625,26.8333259765625C24.724315625,26.8333259765625,25.395215625,26.1624259765625,25.395215625,25.3958259765625C25.395215625,24.6291259765625,24.724315625,23.9583259765625,23.957715625,23.9583259765625C23.191015625,23.9583259765625,22.520215625,24.6291259765625,22.520215625,25.3958259765625C22.520215625,26.1624259765625,23.191015625,26.8333259765625,23.957715625,26.8333259765625ZM23.957715625,22.0416259765625C24.724315625,22.0416259765625,25.395215625,21.3708259765625,25.395215625,20.6041259765625C25.395215625,19.8374259765625,24.724315625,19.1666259765625,23.957715625,19.1666259765625C23.191015625,19.1666259765625,22.520215625,19.8374259765625,22.520215625,20.6041259765625C22.520215625,21.3708259765625,23.191015625,22.0416259765625,23.957715625,22.0416259765625ZM24.436815625,29.7083259765625L23.478515625,29.7083259765625C22.711815625,29.7083259765625,22.041015625,30.3791259765625,22.041015625,31.1458259765625C22.041015625,31.9124259765625,22.711815625,32.5833259765625,23.478515625,32.5833259765625L24.436815625,32.5833259765625C25.203515625,32.5833259765625,25.874315625,31.9124259765625,25.874315625,31.1458259765625C25.874315625,30.3791259765625,25.203515625,29.7083259765625,24.436815625,29.7083259765625ZM36.320215625,16.7707959765625C35.649315625,11.5957959765625,31.241015625,7.6666259765625,25.874315625,7.6666259765625C21.370215625,7.6666259765625,17.536815625,10.4457959765625,16.003515625,14.3749559765625L15.332715625,14.3749559765625C12.170215625,14.3749559765625,9.486845625,16.5791259765625,8.816015625,19.5499259765625C4.791015625,20.6999259765625,1.916015625,24.4374259765625,1.916015625,28.7499259765625C1.916015625,34.0208259765625,6.228515625,38.3333259765625,11.499345625,38.3333259765625L33.541015625,38.3333259765625C39.386815625,38.0458259765625,44.082715625,33.2541259765625,44.082715625,27.3124259765625C44.082715625,22.3291259765625,40.824315625,18.2083259765625,36.320215625,16.7707959765625ZM18.207715625,32.5833259765625C18.207715625,33.6374259765625,17.345215625,34.4999259765625,16.291015625,34.4999259765625L15.332715625,34.4999259765625C14.278515625,34.4999259765625,13.416015625,33.6374259765625,13.416015625,32.5833259765625L13.416015625,22.9999259765625C13.416015625,21.9458259765625,14.278515625,21.0833259765625,15.332715625,21.0833259765625L16.291015625,21.0833259765625C17.345215625,21.0833259765625,18.207715625,21.9458259765625,18.207715625,22.9999259765625L18.207715625,32.5833259765625ZM27.791015625,32.5833259765625C27.791015625,33.6374259765625,26.928515625,34.4999259765625,25.874315625,34.4999259765625L22.041015625,34.4999259765625C20.986815625,34.4999259765625,20.124315625,33.6374259765625,20.124315625,32.5833259765625L20.124315625,19.1666259765625C20.124315625,18.1124259765625,20.986815625,17.2499559765625,22.041015625,17.2499559765625L25.874315625,17.2499559765625C26.928515625,17.2499559765625,27.791015625,18.1124259765625,27.791015625,19.1666259765625L27.791015625,32.5833259765625ZM34.499315625,32.5833259765625C34.499315625,33.6374259765625,33.636815625,34.4999259765625,32.582715625,34.4999259765625L31.624315625,34.4999259765625C30.570215625,34.4999259765625,29.707715625,33.6374259765625,29.707715625,32.5833259765625L29.707715625,22.9999259765625C29.707715625,21.9458259765625,30.570215625,21.0833259765625,31.624315625,21.0833259765625L32.582715625,21.0833259765625C33.636815625,21.0833259765625,34.499315625,21.9458259765625,34.499315625,22.9999259765625L34.499315625,32.5833259765625Z" fill="#333333" fill-opacity="1" style="mix-blend-mode:passthrough"/></g></g></svg>